<?xml version="1.0" standalone="no"?>
<!DOCTYPE svg PUBLIC "-//W3C//DTD SVG 20010904//EN"
 "http://www.w3.org/TR/2001/REC-SVG-20010904/DTD/svg10.dtd">
<svg version="1.0" xmlns="http://www.w3.org/2000/svg"
 width="150.000000pt" height="38.000000pt" viewBox="0 0 150.000000 38.000000"
 preserveAspectRatio="xMidYMid meet">

<g transform="translate(0.000000,38.000000) scale(0.100000,-0.100000)"
fill="#000000" stroke="none">
<path d="M17 363 c-11 -11 -8 -58 5 -71 8 -8 52 -12 130 -12 113 0 118 1 133
24 13 19 14 29 5 45 -10 20 -20 21 -139 21 -70 0 -131 -3 -134 -7z"/>
<path d="M336 357 c-23 -17 -18 -45 11 -64 19 -13 24 -12 42 6 25 25 26 35 5
55 -19 19 -35 20 -58 3z"/>
<path d="M330 241 c-14 -28 -13 -204 2 -219 18 -18 56 -14 68 7 5 11 10 59 10
106 0 98 -10 125 -45 125 -14 0 -29 -8 -35 -19z"/>
<path d="M488 244 c-32 -17 -45 -55 -32 -93 8 -22 20 -29 72 -41 35 -8 63 -19
63 -25 1 -15 -32 -22 -72 -15 -40 8 -69 -3 -69 -25 0 -22 39 -38 95 -39 66 -1
111 19 122 52 20 62 -7 92 -94 107 -27 4 -43 12 -43 21 0 15 13 18 76 15 45
-3 65 19 43 45 -16 19 -126 18 -161 -2z"/>
<path d="M769 243 c-83 -51 -75 -187 14 -224 68 -29 167 -5 167 41 0 29 -32
42 -59 24 -29 -21 -60 -14 -83 17 -15 20 -17 30 -9 51 15 40 44 51 84 34 58
-24 95 23 45 58 -30 21 -125 21 -159 -1z"/>
<path d="M28 229 c-11 -6 -18 -22 -18 -40 0 -38 34 -52 109 -46 72 5 103 44
65 81 -18 18 -128 22 -156 5z"/>
<path d="M14 73 c-8 -32 6 -57 35 -61 28 -4 51 14 51 42 0 30 -18 46 -52 46
-22 0 -29 -6 -34 -27z"/>
</g>
</svg>
